<svg width="2500" height="1000" fill="none" xmlns="http://www.w3.org/2000/svg"><rect width="2500" height="1000" rx="100" fill="#000"/><path d="M516.373 412.634h44.957V536h26.136V412.634h44.958v-22.089H516.373v22.089zM669.37 472.08c0-15.768 9.801-24.858 23.579-24.858 13.495 0 21.449 8.593 21.449 23.295V536h25.71v-69.46c0-26.35-14.914-41.051-37.571-41.051-16.761 0-27.414 7.599-32.457 19.957h-1.279v-54.901h-25.142V536h25.711v-63.92zM756.316 536h25.71V426.909h-25.71V536zm12.926-124.574c8.167 0 14.844-6.25 14.844-13.92 0-7.742-6.677-13.992-14.844-13.992-8.239 0-14.915 6.25-14.915 13.992 0 7.67 6.676 13.92 14.915 13.92zm54.932 60.654c0-15.768 9.517-24.858 23.083-24.858 13.281 0 21.236 8.735 21.236 23.295V536h25.71v-69.46c.071-26.137-14.844-41.051-37.358-41.051-16.335 0-27.557 7.812-32.529 19.957h-1.278v-18.537h-24.574V536h25.71v-63.92zM910.339 536h25.71v-36.648l9.375-10.014L978.805 536h30.755l-44.746-62.003 42.256-47.088h-30.041l-39.204 43.821h-1.776v-80.185h-25.71V536zm144.611 0h26.35v-49.148h27.84c33.6 0 51.64-20.17 51.64-48.153 0-27.77-17.83-48.154-51.28-48.154h-54.55V536zm26.35-70.81v-52.628h24.15c19.74 0 28.48 10.654 28.48 26.137s-8.74 26.491-28.34 26.491h-24.29zm91.23 70.81h25.71v-64.134c0-13.849 10.44-23.65 24.57-23.65 4.33 0 9.73.781 11.93 1.491v-23.65c-2.34-.426-6.39-.71-9.23-.71-12.5 0-22.94 7.102-26.92 19.744h-1.13v-18.182h-24.93V536zm112.39 2.131c31.96 0 52.27-22.515 52.27-56.25 0-33.807-20.31-56.392-52.27-56.392-31.96 0-52.28 22.585-52.28 56.392 0 33.735 20.32 56.25 52.28 56.25zm.14-20.597c-17.69 0-26.35-15.767-26.35-35.724 0-19.958 8.66-35.938 26.35-35.938 17.4 0 26.06 15.98 26.06 35.938 0 19.957-8.66 35.724-26.06 35.724zm111.54 20.597c27.41 0 44.88-16.265 46.73-39.418h-24.57c-2.21 11.719-10.66 18.466-21.95 18.466-16.05 0-26.42-13.423-26.42-35.724 0-22.017 10.58-35.228 26.42-35.228 12.36 0 19.96 7.955 21.95 18.466h24.57c-1.78-23.65-20.24-39.204-46.88-39.204-31.96 0-52.13 23.082-52.13 56.392 0 33.025 19.68 56.25 52.28 56.25zm106.14 0c25.42 0 42.89-12.429 47.44-31.392l-24.01-2.699c-3.48 9.233-12 14.062-23.08 14.062-16.62 0-27.63-10.937-27.84-29.616h75.99v-7.884c0-38.281-23.01-55.113-49.85-55.113-31.25 0-51.64 22.94-51.64 56.605 0 34.233 20.1 56.037 52.99 56.037zm-27.42-66.975c.78-13.92 11.08-25.639 26.42-25.639 14.77 0 24.72 10.795 24.86 25.639h-51.28zm128.16 66.762c18.75 0 27.2-11.151 31.25-19.106h1.56V536h25.28V390.545h-25.78v54.404h-1.06c-3.91-7.884-11.93-19.46-31.18-19.46-25.21 0-45.03 19.744-45.03 56.108 0 35.937 19.25 56.321 44.96 56.321zm7.17-21.094c-16.97 0-25.92-14.915-25.92-35.369 0-20.313 8.81-34.873 25.92-34.873 16.55 0 25.64 13.708 25.64 34.873 0 21.164-9.23 35.369-25.64 35.369zm137.85-26.705c0 16.62-11.86 24.858-23.22 24.858-12.36 0-20.6-8.736-20.6-22.585v-65.483h-25.71v69.46c0 26.208 14.92 41.051 36.37 41.051 16.33 0 27.84-8.593 32.81-20.809h1.13V536h24.93V426.909h-25.71v63.21zM1790.65 536h25.71v-64.134c0-13.849 10.44-23.65 24.58-23.65 4.33 0 9.73.781 11.93 1.491v-23.65c-2.35-.426-6.39-.71-9.24-.71-12.5 0-22.94 7.102-26.91 19.744h-1.14v-18.182h-24.93V536zm98.54 2.202c17.12 0 27.35-8.026 32.03-17.188h.86V536h24.71v-73.011c0-28.836-23.51-37.5-44.32-37.5-22.94 0-40.55 10.227-46.23 30.113l24 3.409c2.56-7.457 9.8-13.849 22.38-13.849 11.93 0 18.46 6.108 18.46 16.832v.426c0 7.387-7.74 7.742-26.99 9.802-21.16 2.272-41.4 8.593-41.4 33.167 0 21.449 15.69 32.813 36.5 32.813zm6.68-18.892c-10.73 0-18.4-4.901-18.4-14.347 0-9.872 8.6-13.991 20.1-15.625 6.75-.923 20.24-2.628 23.58-5.327v12.855c0 12.145-9.8 22.444-25.28 22.444zm92.48-128.765h-25.71V536h25.71V390.545zM1045.34 615h4.39v-12.685h14.5V615h4.41v-29.091h-4.41v12.642h-14.5v-12.642h-4.39V615zm36.54.44c6.15 0 10.17-4.502 10.17-11.25 0-6.789-4.02-11.292-10.17-11.292s-10.17 4.503-10.17 11.292c0 6.748 4.02 11.25 10.17 11.25zm.01-3.565c-4.02 0-5.89-3.509-5.89-7.699 0-4.176 1.87-7.727 5.89-7.727 3.99 0 5.87 3.551 5.87 7.727 0 4.19-1.88 7.699-5.87 7.699zm26.72-5.923c.01 3.707-2.74 5.468-5.13 5.468-2.63 0-4.44-1.903-4.44-4.872v-13.366h-4.25v13.878c0 5.412 2.97 8.224 7.16 8.224 3.28 0 5.51-1.733 6.52-4.062h.22V615h4.18v-21.818h-4.26v12.77zm16.14 9.474c3.97 0 5.54-2.429 6.3-3.821h.36V615h4.15v-29.091h-4.25v10.81h-.26c-.76-1.35-2.21-3.821-6.28-3.821-5.27 0-9.14 4.162-9.14 11.236 0 7.059 3.82 11.292 9.12 11.292zm.93-3.622c-3.79 0-5.76-3.338-5.76-7.713 0-4.332 1.93-7.585 5.76-7.585 3.71 0 5.7 3.025 5.7 7.585 0 4.588-2.03 7.713-5.7 7.713zm13.94 3.196h4.24v-21.818h-4.24V615zm2.14-25.185c1.46 0 2.69-1.136 2.69-2.528 0-1.392-1.23-2.543-2.69-2.543-1.48 0-2.68 1.151-2.68 2.543 0 1.392 1.2 2.528 2.68 2.528zm10.06 12.23c0-3.48 2.14-5.468 5.09-5.468 2.88 0 4.63 1.889 4.63 5.057V615h4.25v-13.878c0-5.398-2.97-8.224-7.43-8.224-3.28 0-5.43 1.52-6.44 3.835h-.27v-3.551h-4.07V615h4.24v-12.955zM1169.48 615h4.25v-21.818h-4.25V615zm2.15-25.185c1.46 0 2.68-1.136 2.68-2.528 0-1.392-1.22-2.543-2.68-2.543-1.48 0-2.69 1.151-2.69 2.543 0 1.392 1.21 2.528 2.69 2.528zM1195.79 615c8.86 0 13.99-5.497 13.99-14.588 0-9.048-5.13-14.503-13.69-14.503h-9.72V615h9.42zm-5.03-3.835v-21.421h5.06c6.36 0 9.64 3.807 9.64 10.668 0 6.889-3.28 10.753-9.91 10.753h-4.79zM1212.9 615h4.25v-21.818h-4.25V615zm2.14-25.185c1.47 0 2.69-1.136 2.69-2.528 0-1.392-1.22-2.543-2.69-2.543s-2.68 1.151-2.68 2.543c0 1.392 1.21 2.528 2.68 2.528zm22.17 8.694c-.88-3.395-3.54-5.611-8.25-5.611-4.93 0-8.43 2.599-8.43 6.463 0 3.096 1.88 5.156 5.97 6.065l3.69.81c2.1.469 3.08 1.406 3.08 2.77 0 1.69-1.8 3.011-4.58 3.011-2.55 0-4.18-1.094-4.69-3.239l-4.11.625c.71 3.864 3.92 6.037 8.82 6.037 5.27 0 8.92-2.798 8.92-6.747 0-3.082-1.96-4.986-5.96-5.909l-3.47-.795c-2.4-.569-3.43-1.378-3.42-2.855-.01-1.677 1.8-2.87 4.22-2.87 2.64 0 3.86 1.463 4.36 2.926l3.85-.681zm12.28 16.931c5.16 0 8.5-3.096 8.97-7.343h-4.14c-.54 2.358-2.37 3.75-4.8 3.75-3.59 0-5.91-2.998-5.91-7.756 0-4.673 2.36-7.614 5.91-7.614 2.7 0 4.35 1.705 4.8 3.75h4.14c-.46-4.403-4.05-7.329-9.01-7.329-6.15 0-10.13 4.63-10.13 11.292 0 6.577 3.84 11.25 10.17 11.25zm20.7 0c6.15 0 10.17-4.502 10.17-11.25 0-6.789-4.02-11.292-10.17-11.292s-10.17 4.503-10.17 11.292c0 6.748 4.02 11.25 10.17 11.25zm.01-3.565c-4.02 0-5.89-3.509-5.89-7.699 0-4.176 1.87-7.727 5.89-7.727 4 0 5.87 3.551 5.87 7.727 0 4.19-1.87 7.699-5.87 7.699zm12.9 3.125h4.25v-13.324c0-2.855 2.2-4.915 5.21-4.915.88 0 1.88.157 2.22.256v-4.062c-.43-.057-1.27-.1-1.81-.1-2.55 0-4.74 1.449-5.54 3.793h-.22v-3.466h-4.11V615zm20.74.426c3.98 0 5.54-2.429 6.31-3.821h.35V615h4.15v-29.091h-4.25v10.81h-.25c-.77-1.35-2.22-3.821-6.28-3.821-5.27 0-9.15 4.162-9.15 11.236 0 7.059 3.82 11.292 9.12 11.292zm.94-3.622c-3.8 0-5.77-3.338-5.77-7.713 0-4.332 1.93-7.585 5.77-7.585 3.7 0 5.69 3.025 5.69 7.585 0 4.588-2.03 7.713-5.69 7.713zm47.02-16.435c-.99-6.221-5.87-9.858-12.02-9.858-7.53 0-13.08 5.64-13.08 14.944 0 9.304 5.53 14.943 13.08 14.943 6.39 0 11.07-4.006 12.02-9.759l-4.43-.014c-.76 3.722-3.88 5.767-7.56 5.767-4.99 0-8.75-3.821-8.75-10.937 0-7.06 3.75-10.938 8.76-10.938 3.71 0 6.82 2.088 7.55 5.852h4.43zm12.1 20.071c6.15 0 10.17-4.502 10.17-11.25 0-6.789-4.02-11.292-10.17-11.292s-10.17 4.503-10.17 11.292c0 6.748 4.02 11.25 10.17 11.25zm.02-3.565c-4.02 0-5.9-3.509-5.9-7.699 0-4.176 1.88-7.727 5.9-7.727 3.99 0 5.86 3.551 5.86 7.727 0 4.19-1.87 7.699-5.86 7.699zm12.89 3.125h4.25v-13.452c0-2.94 2.06-4.986 4.47-4.986 2.36 0 4 1.563 4 3.935V615h4.23v-13.906c0-2.628 1.6-4.532 4.37-4.532 2.25 0 4.09 1.25 4.09 4.205V615h4.25v-14.631c0-4.985-2.78-7.471-6.73-7.471-3.14 0-5.5 1.505-6.55 3.835h-.23c-.95-2.386-2.95-3.835-5.86-3.835-2.89 0-5.03 1.434-5.94 3.835h-.27v-3.551h-4.08V615zm33.35 0h4.25v-13.452c0-2.94 2.06-4.986 4.48-4.986 2.35 0 3.99 1.563 3.99 3.935V615h4.23v-13.906c0-2.628 1.6-4.532 4.37-4.532 2.25 0 4.1 1.25 4.1 4.205V615h4.24v-14.631c0-4.985-2.78-7.471-6.73-7.471-3.14 0-5.5 1.505-6.55 3.835h-.23c-.95-2.386-2.95-3.835-5.86-3.835-2.89 0-5.03 1.434-5.94 3.835h-.27v-3.551h-4.08V615zm47.18-9.048c.01 3.707-2.75 5.468-5.13 5.468-2.63 0-4.45-1.903-4.45-4.872v-13.366h-4.24v13.878c0 5.412 2.96 8.224 7.15 8.224 3.29 0 5.52-1.733 6.52-4.062h.23V615h4.18v-21.818h-4.26v12.77zm12.21-3.907c0-3.48 2.13-5.468 5.09-5.468 2.88 0 4.63 1.889 4.63 5.057V615h4.24v-13.878c0-5.398-2.96-8.224-7.42-8.224-3.29 0-5.43 1.52-6.44 3.835h-.27v-3.551h-4.08V615h4.25v-12.955zM1487.21 615h4.25v-21.818h-4.25V615zm2.15-25.185c1.46 0 2.68-1.136 2.68-2.528 0-1.392-1.22-2.543-2.68-2.543-1.48 0-2.69 1.151-2.69 2.543 0 1.392 1.21 2.528 2.69 2.528zm16 3.367h-4.48v-5.227h-4.25v5.227h-3.19v3.409h3.19v12.883c-.01 3.964 3.02 5.881 6.37 5.81 1.35-.014 2.26-.27 2.75-.454l-.76-3.509c-.29.057-.81.185-1.49.185-1.38 0-2.62-.455-2.62-2.912v-12.003h4.48v-3.409zm5.38 30c3.51 0 5.72-1.833 6.99-5.27l8.99-24.73h-4.56l-5.53 16.932h-.22l-5.53-16.932h-4.54l7.98 22.102-.53 1.449c-1.08 2.898-2.6 3.139-4.93 2.5l-1.02 3.48c.51.227 1.62.469 2.9.469zM974 611.631V618h5.574c-2.708-1.542-4.621-3.886-5.574-6.369zm23.394-6.641c-.007-5.884-4.731-11.55-11.828-11.796-5.029-.173-8.942 1.672-11.566 4.396v6.143c1.784-5.154 6.701-7.517 10.82-7.477 5.147.052 9.117 3.934 9.14 8.322.021 4.193-1.736 7.28-6.476 8.041-2.586.415-6.632-1.101-6.452-5.007.093-2.014 1.662-3.151 3.459-3.069-1.759 2.357.57 4.083 2.216 3.732 2.038-.436 2.868-2.245 2.868-3.649 0-1.481-1.395-3.872-4.858-3.79-4.285.101-6.982 3.184-7.072 6.994-.115 4.8 4.374 7.954 8.981 8.012 6.764.083 10.777-4.353 10.768-10.852z" fill="#fff"/><path d="M974 583v10.069c3.009-2.31 6.927-3.805 11.566-3.802 9.931.006 16.234 6.945 16.234 15.699 0 6.082-2.841 10.655-7.285 13.033H1009V583h-35z" fill="#fff"/><path d="M997.394 604.99c-.007-5.884-4.731-11.55-11.828-11.796-5.029-.173-8.942 1.672-11.566 4.396v6.143c1.784-5.154 6.701-7.517 10.82-7.477 5.147.052 9.117 3.934 9.14 8.322.021 4.193-1.736 7.28-6.476 8.041-2.586.415-6.632-1.101-6.452-5.007.093-2.014 1.662-3.151 3.459-3.069-1.759 2.357.57 4.083 2.216 3.732 2.038-.436 2.868-2.245 2.868-3.649 0-1.481-1.395-3.872-4.858-3.79-4.285.101-6.982 3.184-7.072 6.994-.115 4.8 4.374 7.954 8.981 8.012 6.764.083 10.777-4.353 10.768-10.852z" fill="#fff"/><path d="M974 583v10.069c3.009-2.31 6.927-3.805 11.566-3.802 9.931.006 16.234 6.945 16.234 15.699 0 6.082-2.841 10.655-7.285 13.033H1009V583h-35z" fill="#fff"/></svg>